# Blender v2.83.1 OBJ File: ''
# www.blender.org
mtllib Shell.mtl
o ammo_pistol
v -0.362289 0.000000 0.250000
v 0.362289 0.000000 0.250000
v -0.362289 0.176777 0.176777
v 0.362289 0.176777 0.176777
v -0.362289 0.250000 -0.000000
v 0.362289 0.250000 0.000000
v -0.362289 0.176777 -0.176777
v 0.362289 0.176777 -0.176777
v -0.362289 -0.000000 -0.250000
v 0.362289 -0.000000 -0.250000
v -0.362289 -0.176777 -0.176777
v 0.362289 -0.176777 -0.176777
v -0.362289 -0.250000 -0.000000
v 0.362289 -0.250000 0.000000
v -0.362289 -0.176777 0.176777
v 0.362289 -0.176777 0.176777
vt 1.000000 1.000000
vt 0.875000 0.500000
vt 1.000000 0.500000
vt 0.875000 1.000000
vt 0.750000 0.500000
vt 0.750000 1.000000
vt 0.625000 0.500000
vt 0.625000 1.000000
vt 0.500000 0.500000
vt 0.500000 1.000000
vt 0.375000 0.500000
vt 0.375000 1.000000
vt 0.250000 0.500000
vt 0.250000 1.000000
vt 0.125000 0.500000
vt 0.125000 1.000000
vt 0.000000 0.500000
vt 0.919706 0.080294
vt 0.580294 0.080294
vt 0.580294 0.419706
vt 0.000000 1.000000
vt 0.750000 0.490000
vt 0.919706 0.419706
vt 0.990000 0.250000
vt 0.750000 0.010000
vt 0.510000 0.250000
vn -0.0000 0.0000 1.0000
vn -0.0000 0.7071 0.7071
vn 0.0000 1.0000 0.0000
vn 0.0000 0.7071 -0.7071
vn 0.0000 -0.0000 -1.0000
vn 0.0000 -0.7071 -0.7071
vn 0.0000 -1.0000 0.0000
vn -0.0000 -0.7071 0.7071
vn -1.0000 0.0000 0.0000
usemtl Gold
s 1
f 2/1/1 3/2/2 1/3/1
f 4/4/2 5/5/3 3/2/2
f 6/6/3 7/7/4 5/5/3
f 8/8/4 9/9/5 7/7/4
f 10/10/5 11/11/6 9/9/5
f 12/12/6 13/13/7 11/11/6
f 14/14/7 15/15/8 13/13/7
f 16/16/8 1/17/1 15/15/8
f 7/18/9 11/19/9 15/20/9
f 2/1/1 4/4/2 3/2/2
f 4/4/2 6/6/3 5/5/3
f 6/6/3 8/8/4 7/7/4
f 8/8/4 10/10/5 9/9/5
f 10/10/5 12/12/6 11/11/6
f 12/12/6 14/14/7 13/13/7
f 14/14/7 16/16/8 15/15/8
f 16/16/8 2/21/1 1/17/1
f 15/20/9 1/22/9 3/23/9
f 3/23/9 5/24/9 15/20/9
f 5/24/9 7/18/9 15/20/9
f 7/18/9 9/25/9 11/19/9
f 11/19/9 13/26/9 15/20/9
