# Blender v2.83.1 OBJ File: ''
# www.blender.org
mtllib Sign.mtl
o sign
v 0.017500 0.017500 0.203170
v 0.017500 -0.017500 -0.000000
v 0.017500 0.017500 -0.000000
v 0.017500 -0.017500 0.203170
v -0.017500 -0.017500 0.408771
v -0.017500 -0.017500 0.000000
v 0.017500 -0.017500 0.408771
v 0.017500 -0.017500 0.380771
v -0.017500 0.017500 0.408771
v 0.017500 0.017500 0.408771
v 0.052500 0.120000 0.350771
v 0.052500 -0.120000 0.233170
v 0.052500 0.120000 0.233170
v 0.052500 -0.120000 0.350771
v 0.017500 0.017500 0.380771
v -0.017500 0.017500 0.000000
v 0.052500 -0.150000 0.203170
v 0.017500 -0.150000 0.380771
v 0.017500 -0.150000 0.203170
v 0.052500 -0.150000 0.380771
v 0.052500 0.150000 0.380771
v 0.017500 0.150000 0.203170
v 0.017500 0.150000 0.380771
v 0.052500 0.150000 0.203170
vt 0.688976 7.998837
vt -0.688976 0.000000
vt 0.688976 0.000000
vt -0.688976 7.998837
vt 0.688976 0.000000
vt -0.688976 16.093330
vt -0.688976 0.000000
vt 0.688976 16.093330
vt 0.688976 7.998837
vt 0.688976 14.990960
vt -0.688976 -0.688976
vt 0.688976 0.688976
vt -0.688976 0.688976
vt 0.688976 -0.688976
vt 4.724410 13.809860
vt -4.724410 9.179940
vt 4.724410 9.179940
vt -4.724410 13.809860
vt 0.688976 16.093330
vt -0.688976 14.990960
vt 0.688976 14.990960
vt -0.688976 16.093330
vt -0.688976 16.093330
vt 0.688976 0.000000
vt 0.688976 16.093330
vt -0.688976 0.000000
vt -0.688976 14.990960
vt -0.688976 7.998837
vt 0.688976 16.093330
vt -0.688976 -0.000000
vt 0.688976 -0.000000
vt -0.688976 16.093330
vt 2.066929 7.998837
vt 0.688976 14.990960
vt 0.688976 7.998837
vt 2.066929 14.990960
vt -2.066929 14.990960
vt -0.688976 7.998837
vt -0.688976 14.990960
vt -2.066929 7.998837
vt -5.905512 14.990960
vt -5.905512 7.998837
vt -5.905512 2.066929
vt 5.905512 0.688976
vt 5.905512 2.066929
vt 0.688976 0.688976
vt -0.688976 0.688976
vt -5.905512 0.688976
vt -0.688976 0.688976
vt -5.905512 2.066929
vt -5.905512 0.688976
vt 5.905512 2.066929
vt 0.688976 0.688976
vt 5.905512 0.688976
vt 5.905512 14.990960
vt 5.905512 7.998837
vt 5.905512 7.998837
vt -5.905512 7.998837
vt 5.905512 14.990960
vt -5.905512 14.990960
vt 0.688976 16.093330
vt -0.688976 16.093330
vt 0.688976 16.093330
vt -0.688976 16.093330
vn 1.0000 0.0000 -0.0000
vn 0.0000 -1.0000 -0.0000
vn 0.0000 0.0000 0.0000
vn 0.0000 0.0000 1.0000
vn 0.0000 1.0000 0.0000
vn -1.0000 0.0000 0.0000
vn -0.0000 0.0000 -1.0000
usemtl wood
s 1
f 1/1/1 2/2/1 3/3/1
f 2/2/1 1/1/1 4/4/1
f 2/5/2 5/6/2 6/7/2
f 5/6/2 2/5/2 7/8/2
f 7/8/2 2/5/2 4/9/3
f 7/8/2 4/9/3 8/10/1
f 9/11/4 7/12/4 10/13/4
f 7/12/4 9/11/4 5/14/4
f 11/15/1 12/16/1 13/17/1
f 12/16/1 11/15/1 14/18/1
f 10/19/1 8/20/1 15/21/1
f 8/20/1 10/19/1 7/22/1
f 10/23/5 16/24/5 9/25/5
f 16/24/5 10/23/5 3/26/5
f 3/26/5 10/23/5 15/27/2
f 3/26/5 15/27/2 1/28/5
f 5/29/6 16/30/6 6/31/6
f 16/30/6 5/29/6 9/32/6
f 17/33/2 18/34/2 19/35/2
f 18/34/2 17/33/2 20/36/2
f 21/37/5 22/38/5 23/39/5
f 22/38/5 21/37/5 24/40/5
f 1/28/6 23/41/6 22/42/6
f 23/41/6 1/28/6 15/27/6
f 17/43/7 22/44/7 24/45/7
f 22/44/7 17/43/7 1/46/7
f 1/46/7 17/43/7 4/47/7
f 4/47/7 17/43/7 19/48/7
f 15/49/4 21/50/4 23/51/4
f 21/50/4 15/49/4 20/52/4
f 20/52/4 15/49/4 8/53/4
f 20/52/4 8/53/4 18/54/4
f 18/55/6 4/9/6 19/56/6
f 4/9/6 18/55/6 8/10/6
f 24/57/1 13/17/1 17/58/1
f 13/17/1 24/57/1 21/59/1
f 13/17/1 21/59/1 11/15/1
f 11/15/1 21/59/1 14/18/1
f 12/16/1 17/58/1 13/17/1
f 17/58/1 12/16/1 20/60/1
f 20/60/1 12/16/1 14/18/1
f 20/60/1 14/18/1 21/59/1
f 2/2/7 16/61/7 3/62/7
f 16/30/7 2/63/7 6/64/7
